<svg id="Layer_1" data-name="Layer 1" xmlns="http://www.w3.org/2000/svg" viewBox="0 0 1280 769"><defs><style>.cls-1{fill:#fff;}</style></defs><title>Adhar.io</title><rect width="1280" height="769"/><path class="cls-1" d="M496.53,410.49H484.28L506.61,354c2.35-5.94,6.68-8.2,13.37-8.2s10.93,2.26,13.19,8.2l21.48,56.52H542.31L523,359.34a3,3,0,0,0-3.11-2.17,3.22,3.22,0,0,0-3.21,2.17Z"/><path class="cls-1" d="M593.65,346.9c18.56,0,28.64,10.37,28.64,31.84s-10,31.75-28.64,31.75H571.23c-3.58,0-5.27-1.7-5.27-5.18V352.08c0-3.48,1.69-5.18,5.27-5.18Zm-16.58,51.34c0,.85.38,1.13,1.23,1.13h15.35c12.34,0,17.52-6.12,17.52-20.72S606,358,593.65,358H578.3c-.85,0-1.23.28-1.23,1.13Z"/><path class="cls-1" d="M648.39,346.9v25.91h32.5V346.9H692.1v63.59H680.89V383.92h-32.5v26.57H637.28V346.9Z"/><path class="cls-1" d="M715.66,410.49H703.41L725.73,354c2.36-5.94,6.69-8.2,13.38-8.2S750,348,752.3,354l21.47,56.52H761.43l-19.31-51.15a3,3,0,0,0-3.1-2.17,3.22,3.22,0,0,0-3.21,2.17Z"/><path class="cls-1" d="M819.37,346.9c14.32,0,20.45,8.86,20.45,19,0,7.91-3.77,16.39-13.47,19.12l14.78,25.44H828.79l-14.5-24.59H797.71a1.4,1.4,0,0,0-1.6,1.6v23H785V385.34c0-7.16,3-10.08,10-10.08h24.77c6.31,0,8.85-4.34,8.85-8.86s-2.73-8.38-8.85-8.38H784.9V346.9Z"/><path class="cls-1" d="M863.28,397.67v12.82H852.54V397.67Z"/><path class="cls-1" d="M890,346.9v63.59H878.92V346.9Z"/><path class="cls-1" d="M942.31,346.9c18.47,0,28.73,10.55,28.73,31.94s-10.17,31.65-28.73,31.65h-8.66c-18.56,0-28.73-10.36-28.73-31.65s10.26-31.94,28.73-31.94ZM933.65,358C921.4,358,916,364.24,916,378.84s5.28,20.53,17.62,20.53h8.66c12.25,0,17.52-6,17.52-20.63S954.56,358,942.31,358Z"/><path class="cls-1" d="M490.69,430.23c3.16,0,4.92,1.8,4.92,5.47s-1.74,5.42-4.92,5.42H489.2c-3.17,0-4.92-1.77-4.92-5.42s1.76-5.47,4.92-5.47Zm-1.49,1.9c-2.09,0-3,1.06-3,3.57s.9,3.51,3,3.51h1.49c2.1,0,3-1,3-3.53s-.9-3.55-3-3.55Z"/><path class="cls-1" d="M505.65,430.23c2.46,0,3.51,1.51,3.51,3.26a3.24,3.24,0,0,1-3.51,3.42h-3.39a.24.24,0,0,0-.27.27v3.94h-1.9v-4.31c0-1.23.51-1.73,1.71-1.73h3.92a1.41,1.41,0,0,0,1.52-1.5,1.37,1.37,0,0,0-1.51-1.45h-5.66v-1.9Z"/><path class="cls-1" d="M522,430.23v1.9h-5.45c-1.15,0-1.65.53-1.65,1.37s.56,1.29,1.66,1.29h5.36v1.73h-5.41c-1.09,0-1.66.44-1.66,1.32s.53,1.37,1.65,1.37H522v1.91h-5.52c-2.58,0-3.63-1.28-3.63-3a2.49,2.49,0,0,1,1.56-2.5,2.44,2.44,0,0,1-1.53-2.46c0-1.74,1.08-3,3.65-3Z"/><path class="cls-1" d="M528.63,441.12h-1.9V432.4a2.22,2.22,0,0,1,2.5-2.37,2.57,2.57,0,0,1,2.65,2l3.18,6.95a.74.74,0,0,0,.69.46.59.59,0,0,0,.65-.62v-8.61h1.92v8.69a2.23,2.23,0,0,1-2.5,2.39,2.59,2.59,0,0,1-2.67-2l-3.17-7a.68.68,0,0,0-.68-.47.6.6,0,0,0-.67.63Z"/><path class="cls-1" d="M558.19,430.23v1.9h-4.4c-1.72,0-2.24.82-2.24,1.84v1h6.57v1.81h-6.57v4.31h-1.9V434c0-2.18,1.13-3.76,4-3.76Z"/><path class="cls-1" d="M568.7,430.23c3.16,0,4.92,1.8,4.92,5.47s-1.74,5.42-4.92,5.42h-1.49c-3.18,0-4.92-1.77-4.92-5.42s1.76-5.47,4.92-5.47Zm-1.49,1.9c-2.09,0-3,1.06-3,3.57s.9,3.51,3,3.51h1.49c2.1,0,3-1,3-3.53s-.9-3.55-3-3.55Z"/><path class="cls-1" d="M580,430.23v7.28c0,1.07.55,1.7,1.81,1.7h1.93c1.23,0,1.8-.63,1.8-1.7v-7.28h1.87v7.42c0,2.29-1.21,3.47-3.54,3.47h-2.29c-2.32,0-3.52-1.18-3.52-3.47v-7.42Z"/><path class="cls-1" d="M594.06,441.12h-1.9V432.4a2.22,2.22,0,0,1,2.5-2.37,2.57,2.57,0,0,1,2.65,2l3.18,6.95a.74.74,0,0,0,.69.46.59.59,0,0,0,.65-.62v-8.61h1.92v8.69a2.22,2.22,0,0,1-2.5,2.39,2.57,2.57,0,0,1-2.66-2l-3.18-7a.68.68,0,0,0-.68-.47.6.6,0,0,0-.67.63Z"/><path class="cls-1" d="M613.36,430.23c3.17,0,4.9,1.77,4.9,5.45s-1.71,5.44-4.9,5.44h-3.85a.78.78,0,0,1-.9-.89v-9.12a.78.78,0,0,1,.9-.88ZM610.51,439c0,.15.07.19.21.19h2.64c2.11,0,3-1,3-3.55s-.89-3.53-3-3.53h-2.64c-.14,0-.21.05-.21.19Z"/><path class="cls-1" d="M623.21,441.12h-2.1l3.83-9.68a2.15,2.15,0,0,1,2.29-1.41,2.12,2.12,0,0,1,2.26,1.41l3.68,9.68h-2.12l-3.31-8.76a.51.51,0,0,0-.53-.38.56.56,0,0,0-.55.38Z"/><path class="cls-1" d="M643.34,430.23v1.9h-3.18v9h-1.92v-9h-3.18v-1.9Z"/><path class="cls-1" d="M649.29,430.23v10.89h-1.91V430.23Z"/><path class="cls-1" d="M660.18,430.23c3.16,0,4.92,1.8,4.92,5.47s-1.75,5.42-4.92,5.42h-1.49c-3.18,0-4.92-1.77-4.92-5.42s1.76-5.47,4.92-5.47Zm-1.49,1.9c-2.1,0-3,1.06-3,3.57s.91,3.51,3,3.51h1.49c2.09,0,3-1,3-3.53s-.91-3.55-3-3.55Z"/><path class="cls-1" d="M671.48,441.12h-1.9V432.4a2.21,2.21,0,0,1,2.5-2.37,2.57,2.57,0,0,1,2.64,2L677.9,439a.74.74,0,0,0,.7.46.59.59,0,0,0,.64-.62v-8.61h1.92v8.69a2.22,2.22,0,0,1-2.5,2.39,2.57,2.57,0,0,1-2.66-2l-3.18-7a.68.68,0,0,0-.68-.47.59.59,0,0,0-.66.63Z"/><path class="cls-1" d="M701,430.23v1.9h-4.39c-1.73,0-2.24.82-2.24,1.84v1H701v1.81H694.4v4.31h-1.91V434c0-2.18,1.13-3.76,4-3.76Z"/><path class="cls-1" d="M711.54,430.23c3.17,0,4.92,1.8,4.92,5.47s-1.74,5.42-4.92,5.42h-1.48c-3.18,0-4.92-1.77-4.92-5.42s1.75-5.47,4.92-5.47Zm-1.48,1.9c-2.1,0-3,1.06-3,3.57s.9,3.51,3,3.51h1.48c2.1,0,3-1,3-3.53s-.9-3.55-3-3.55Z"/><path class="cls-1" d="M726.83,430.23c2.46,0,3.51,1.51,3.51,3.26a3.21,3.21,0,0,1-2.31,3.27l2.53,4.36h-2.11L726,436.91h-2.84a.23.23,0,0,0-.27.27v3.94h-1.91v-4.31c0-1.23.52-1.73,1.71-1.73h4.25a1.41,1.41,0,0,0,1.52-1.51,1.37,1.37,0,0,0-1.52-1.44h-6v-1.9Z"/><path class="cls-1" d="M742.31,441.12h-2l3.37-9.07a2.5,2.5,0,0,1,2.57-2,2.19,2.19,0,0,1,2.42,2.37v6.44a.56.56,0,0,0,.55.62.64.64,0,0,0,.61-.46l2.65-6.95a2.5,2.5,0,0,1,2.56-2,2.19,2.19,0,0,1,2.42,2.37v8.72h-1.92V432.5a.56.56,0,0,0-.55-.63.65.65,0,0,0-.59.47l-2.65,7a2.51,2.51,0,0,1-2.58,2,2.19,2.19,0,0,1-2.41-2.39V432.5a.57.57,0,0,0-.56-.63.67.67,0,0,0-.6.47Z"/><path class="cls-1" d="M768.32,430.23c3.16,0,4.92,1.8,4.92,5.47s-1.75,5.42-4.92,5.42h-1.49c-3.18,0-4.92-1.77-4.92-5.42s1.76-5.47,4.92-5.47Zm-1.49,1.9c-2.1,0-3,1.06-3,3.57s.91,3.51,3,3.51h1.49c2.09,0,3-1,3-3.53s-.91-3.55-3-3.55Z"/><path class="cls-1" d="M782.47,430.23c3.18,0,4.91,1.77,4.91,5.45s-1.71,5.44-4.91,5.44h-3.84a.78.78,0,0,1-.9-.89v-9.12a.78.78,0,0,1,.9-.88ZM779.63,439c0,.15.07.19.21.19h2.63c2.12,0,3-1,3-3.55s-.89-3.53-3-3.53h-2.63c-.14,0-.21.05-.21.19Z"/><path class="cls-1" d="M800.57,430.23v1.9h-5.45c-1.15,0-1.65.53-1.65,1.37s.56,1.29,1.66,1.29h5.36v1.73h-5.41c-1.09,0-1.66.44-1.66,1.32s.53,1.37,1.65,1.37h5.52v1.91h-5.52c-2.58,0-3.63-1.28-3.63-3a2.49,2.49,0,0,1,1.56-2.5,2.44,2.44,0,0,1-1.53-2.46c0-1.74,1.08-3,3.65-3Z"/><path class="cls-1" d="M811.18,430.23c2.45,0,3.5,1.51,3.5,3.26a3.2,3.2,0,0,1-2.3,3.27l2.53,4.36H812.8l-2.49-4.21h-2.84c-.18,0-.28.08-.28.27v3.94h-1.9v-4.31c0-1.23.52-1.73,1.71-1.73h4.24a1.41,1.41,0,0,0,1.52-1.51,1.37,1.37,0,0,0-1.52-1.44h-6v-1.9Z"/><path class="cls-1" d="M821,441.12h-1.9V432.4a2.21,2.21,0,0,1,2.5-2.37,2.57,2.57,0,0,1,2.64,2l3.18,6.95a.74.74,0,0,0,.7.46.59.59,0,0,0,.64-.62v-8.61h1.92v8.69a2.22,2.22,0,0,1-2.5,2.39,2.57,2.57,0,0,1-2.66-2l-3.18-7a.68.68,0,0,0-.68-.47.59.59,0,0,0-.66.63Z"/><path class="cls-1" d="M847.78,430.23c2.56,0,3.64,1.21,3.64,3a2.34,2.34,0,0,1-1.56,2.42,2.46,2.46,0,0,1,1.61,2.49c0,1.74-1.08,3-3.65,3H843a.78.78,0,0,1-.9-.89v-9.12a.78.78,0,0,1,.9-.88ZM844,434.82h3.87c1.13,0,1.68-.42,1.68-1.3s-.5-1.42-1.66-1.42h-3.68c-.13,0-.21.06-.21.19Zm0,4.23c0,.13.08.18.21.18h3.71c1.15,0,1.68-.53,1.68-1.42s-.56-1.4-1.68-1.4H844Z"/><path class="cls-1" d="M857.79,430.23v7.28c0,1.07.55,1.7,1.81,1.7h1.93c1.23,0,1.79-.63,1.79-1.7v-7.28h1.88v7.42c0,2.29-1.21,3.47-3.54,3.47h-2.29c-2.32,0-3.52-1.18-3.52-3.47v-7.42Z"/><path class="cls-1" d="M878.4,430.23v1.9h-5.58c-1,0-1.42.53-1.42,1.29s.34,1.29,1.61,1.29h2.56c3,0,3.66,1.65,3.66,3.21,0,1.84-1,3.2-3.47,3.2h-6.07v-1.91h6.13c1,0,1.5-.56,1.5-1.35s-.37-1.36-1.71-1.36h-2.53c-2.9,0-3.58-1.63-3.58-3.14,0-1.81,1-3.13,3.38-3.13Z"/><path class="cls-1" d="M885.5,430.23v10.89h-1.91V430.23Z"/><path class="cls-1" d="M892.27,441.12h-1.9V432.4a2.21,2.21,0,0,1,2.5-2.37,2.57,2.57,0,0,1,2.64,2l3.18,6.95a.74.74,0,0,0,.7.46.59.59,0,0,0,.64-.62v-8.61H902v8.69a2.22,2.22,0,0,1-2.5,2.39,2.57,2.57,0,0,1-2.66-2l-3.18-7a.68.68,0,0,0-.68-.47.59.59,0,0,0-.66.63Z"/><path class="cls-1" d="M915.52,430.23v1.9h-5.46c-1.15,0-1.65.53-1.65,1.37s.57,1.29,1.67,1.29h5.36v1.73H910c-1.1,0-1.66.44-1.66,1.32s.53,1.37,1.64,1.37h5.52v1.91H910c-2.58,0-3.63-1.28-3.63-3a2.5,2.5,0,0,1,1.57-2.5,2.43,2.43,0,0,1-1.54-2.46c0-1.74,1.08-3,3.65-3Z"/><path class="cls-1" d="M928.66,430.23v1.9h-5.58c-1,0-1.43.53-1.43,1.29s.34,1.29,1.62,1.29h2.55c3,0,3.66,1.65,3.66,3.21,0,1.84-1,3.2-3.47,3.2h-6.07v-1.91h6.14c1,0,1.5-.56,1.5-1.35s-.37-1.36-1.71-1.36h-2.54c-2.9,0-3.58-1.63-3.58-3.14,0-1.81,1-3.13,3.39-3.13Z"/><path class="cls-1" d="M942.25,430.23v1.9h-5.58c-1,0-1.42.53-1.42,1.29s.34,1.29,1.61,1.29h2.55c3,0,3.67,1.65,3.67,3.21,0,1.84-1,3.2-3.47,3.2h-6.07v-1.91h6.13c1,0,1.5-.56,1.5-1.35s-.37-1.36-1.71-1.36h-2.53c-2.91,0-3.58-1.63-3.58-3.14,0-1.81,1-3.13,3.38-3.13Z"/><path class="cls-1" d="M956.14,430.23v1.9h-5.45c-1.15,0-1.65.53-1.65,1.37s.56,1.29,1.66,1.29h5.36v1.73h-5.41c-1.09,0-1.66.44-1.66,1.32s.53,1.37,1.65,1.37h5.52v1.91h-5.52c-2.58,0-3.63-1.28-3.63-3a2.49,2.49,0,0,1,1.56-2.5,2.44,2.44,0,0,1-1.53-2.46c0-1.74,1.08-3,3.65-3Z"/><path class="cls-1" d="M969.28,430.23v1.9H963.7c-1,0-1.42.53-1.42,1.29s.34,1.29,1.61,1.29h2.56c3,0,3.66,1.65,3.66,3.21,0,1.84-1,3.2-3.47,3.2h-6.07v-1.91h6.13c1,0,1.5-.56,1.5-1.35s-.37-1.36-1.71-1.36H964c-2.91,0-3.58-1.63-3.58-3.14,0-1.81,1-3.13,3.38-3.13Z"/><path class="cls-1" d="M389.66,313.54A21.1,21.1,0,0,0,401.29,310a20.87,20.87,0,0,0,7.85-9.68L402,297.49l7.13,2.85a20.82,20.82,0,0,0,1.51-7.78,21,21,0,1,0-38.44,11.62,20.25,20.25,0,0,0,3.06,3.63L309,471.79h16.59l64-158.26ZM385,295.67a5.69,5.69,0,0,1-.95-3.12,5.66,5.66,0,0,1,2.5-4.65,5.51,5.51,0,0,1,5.18-.54,5.56,5.56,0,0,1,2.59,2.09,5.63,5.63,0,0,1,.94,3.11,5.6,5.6,0,0,1-2.49,4.66,5.68,5.68,0,0,1-3.12.94,5.6,5.6,0,0,1-4.65-2.49Z"/><path class="cls-1" d="M435.46,383.52l0-.06h0l-27.25-68.2L352.57,455.49l-.51,0a21,21,0,1,0,11.62,38.44,20.82,20.82,0,0,0,7.85-9.68l-7.13-2.85,7.13,2.85a20.81,20.81,0,0,0,1.51-7.77,21,21,0,0,0-6.62-15.29l41.77-104.47,11.92,29.84-.41,1c-.8,2-1.95,4.67-3.32,7.85-4.82,11.14-12.45,28.17-18.86,42.38-.48,1.08-1,2.13-1.43,3.17H413l4.66-10.36c3.75-8.36,7.5-16.77,10.59-23.82l12.45,31.17-7.39,18.48H382.4a36.42,36.42,0,0,1,5.7,15.37h55.57l13.53-33.85Zm-78.2,95a5.53,5.53,0,0,1-2.09,2.58,5.69,5.69,0,0,1-3.12.95,5.66,5.66,0,0,1-4.65-2.5,5.64,5.64,0,0,1-.95-3.11,5.45,5.45,0,0,1,.41-2.07,5.56,5.56,0,0,1,2.09-2.59,5.63,5.63,0,0,1,3.11-.94,5.48,5.48,0,0,1,2.07.4h0a5.58,5.58,0,0,1,2.58,2.09,5.68,5.68,0,0,1,.94,3.12A5.51,5.51,0,0,1,357.26,478.52Z"/><polygon class="cls-1" points="382.33 456.32 382.33 456.32 382.32 456.31 382.33 456.32"/><polygon class="cls-1" points="382.3 456.27 382.32 456.31 382.32 456.31 382.3 456.27"/></svg>