<svg id="Layer_1" data-name="Layer 1" xmlns="http://www.w3.org/2000/svg" viewBox="0 0 1280 769"><title>Adhar.io</title><path d="M385.26,412.22H371.77l24.6-62.29c2.6-6.54,7.37-9,14.74-9s12,2.49,14.54,9l23.67,62.29h-13.6l-21.29-56.38a3.32,3.32,0,0,0-3.42-2.38,3.53,3.53,0,0,0-3.53,2.38Z"/><path d="M492.3,342.14c20.46,0,31.56,11.42,31.56,35.09s-11,35-31.56,35H467.6c-4,0-5.82-1.87-5.82-5.71V347.85c0-3.84,1.87-5.71,5.82-5.71ZM474,398.72c0,.93.42,1.25,1.35,1.25H492.3c13.6,0,19.31-6.75,19.31-22.84s-5.71-22.74-19.31-22.74H475.38c-.93,0-1.35.31-1.35,1.25Z"/><path d="M552.63,342.14v28.55h35.82V342.14H600.8v70.08H588.45V382.94H552.63v29.28H540.38V342.14Z"/><path d="M626.77,412.22h-13.5l24.6-62.29c2.6-6.54,7.38-9,14.75-9s12,2.49,14.53,9l23.67,62.29h-13.6l-21.28-56.38a3.34,3.34,0,0,0-3.43-2.38,3.54,3.54,0,0,0-3.53,2.38Z"/><path d="M741.08,342.14c15.78,0,22.53,9.76,22.53,21,0,8.72-4.16,18.07-14.85,21.08l16.3,28h-13.6l-16-27.1H717.2a1.55,1.55,0,0,0-1.77,1.77v25.33H703.19V384.5c0-7.89,3.32-11.11,11-11.11h27.3c7,0,9.76-4.78,9.76-9.76s-3-9.24-9.76-9.24H703.08V342.14Z"/><path d="M789.46,398.1v14.12H777.63V398.1Z"/><path d="M819,342.14v70.08H806.7V342.14Z"/><path d="M876.57,342.14c20.35,0,31.66,11.63,31.66,35.19S897,412.22,876.57,412.22H867c-20.45,0-31.66-11.42-31.66-34.89s11.31-35.19,31.66-35.19ZM867,354.39c-13.5,0-19.41,6.85-19.41,22.94S853.42,400,867,400h9.55c13.5,0,19.31-6.65,19.31-22.74s-5.81-22.84-19.31-22.84Z"/><path d="M378.83,434c3.48,0,5.42,2,5.42,6s-1.92,6-5.42,6h-1.64c-3.5,0-5.42-2-5.42-6s1.93-6,5.42-6Zm-1.64,2.1c-2.31,0-3.33,1.17-3.33,3.93s1,3.88,3.33,3.88h1.64c2.31,0,3.3-1.14,3.3-3.9s-1-3.91-3.3-3.91Z"/><path d="M395.32,434c2.7,0,3.86,1.67,3.86,3.59a3.57,3.57,0,0,1-3.86,3.78h-3.74a.26.26,0,0,0-.3.3V446h-2.1v-4.75c0-1.35.57-1.91,1.89-1.91h4.32a1.54,1.54,0,0,0,1.67-1.65,1.5,1.5,0,0,0-1.65-1.6h-6.25V434Z"/><path d="M413.35,434v2.1h-6c-1.26,0-1.81.59-1.81,1.51s.62,1.43,1.83,1.43h5.91v1.9h-6c-1.21,0-1.83.48-1.83,1.46s.58,1.51,1.81,1.51h6.08V446h-6.08c-2.84,0-4-1.41-4-3.28A2.75,2.75,0,0,1,405,440a2.69,2.69,0,0,1-1.68-2.71c0-1.92,1.19-3.27,4-3.27Z"/><path d="M420.65,446h-2.1v-9.61a2.44,2.44,0,0,1,2.76-2.61,2.82,2.82,0,0,1,2.91,2.22l3.51,7.67a.81.81,0,0,0,.76.5.64.64,0,0,0,.71-.68V434h2.12v9.59a2.45,2.45,0,0,1-2.76,2.63,2.84,2.84,0,0,1-2.93-2.22l-3.51-7.67a.74.74,0,0,0-.74-.51.64.64,0,0,0-.73.69Z"/><path d="M453.22,434v2.1h-4.84c-1.91,0-2.48.91-2.48,2v1.14h7.24v2H445.9V446h-2.09v-7.86c0-2.41,1.24-4.15,4.42-4.15Z"/><path d="M464.8,434c3.49,0,5.43,2,5.43,6s-1.92,6-5.43,6h-1.63c-3.51,0-5.43-2-5.43-6s1.94-6,5.43-6Zm-1.63,2.1c-2.32,0-3.33,1.17-3.33,3.93s1,3.88,3.33,3.88h1.63c2.31,0,3.31-1.14,3.31-3.9s-1-3.91-3.31-3.91Z"/><path d="M477.22,434v8c0,1.19.61,1.89,2,1.89h2.13a1.73,1.73,0,0,0,2-1.89v-8h2.06v8.18c0,2.53-1.34,3.83-3.9,3.83H479c-2.56,0-3.88-1.3-3.88-3.83V434Z"/><path d="M492.76,446h-2.1v-9.61a2.44,2.44,0,0,1,2.76-2.61,2.81,2.81,0,0,1,2.91,2.22l3.51,7.67a.81.81,0,0,0,.76.5.65.65,0,0,0,.72-.68V434h2.11v9.59a2.45,2.45,0,0,1-2.75,2.63,2.84,2.84,0,0,1-2.94-2.22l-3.5-7.67a.75.75,0,0,0-.75-.51.64.64,0,0,0-.73.69Z"/><path d="M514,434c3.5,0,5.41,2,5.41,6s-1.89,6-5.41,6h-4.23c-.68,0-1-.32-1-1V435c0-.66.32-1,1-1Zm-3.13,9.7c0,.15.07.21.23.21H514c2.33,0,3.31-1.16,3.31-3.92s-1-3.89-3.31-3.89h-2.9c-.16,0-.23.05-.23.21Z"/><path d="M524.88,446h-2.31l4.21-10.67a2.37,2.37,0,0,1,2.53-1.55,2.33,2.33,0,0,1,2.49,1.55L535.85,446h-2.33l-3.64-9.66a.58.58,0,0,0-.59-.41.61.61,0,0,0-.6.41Z"/><path d="M547.07,434v2.1h-3.51V446h-2.11v-9.91h-3.51V434Z"/><path d="M553.62,434v12h-2.1V434Z"/><path d="M565.62,434c3.49,0,5.43,2,5.43,6s-1.92,6-5.43,6H564c-3.51,0-5.43-2-5.43-6s1.94-6,5.43-6Zm-1.63,2.1c-2.32,0-3.33,1.17-3.33,3.93s1,3.88,3.33,3.88h1.63c2.31,0,3.31-1.14,3.31-3.9s-1-3.91-3.31-3.91Z"/><path d="M578.08,446H576v-9.61a2.44,2.44,0,0,1,2.76-2.61,2.81,2.81,0,0,1,2.91,2.22l3.51,7.67a.81.81,0,0,0,.76.5.65.65,0,0,0,.72-.68V434h2.11v9.59a2.45,2.45,0,0,1-2.75,2.63,2.84,2.84,0,0,1-2.94-2.22l-3.5-7.67a.75.75,0,0,0-.75-.51.64.64,0,0,0-.73.69Z"/><path d="M610.65,434v2.1h-4.84c-1.9,0-2.47.91-2.47,2v1.14h7.24v2h-7.24V446h-2.1v-7.86c0-2.41,1.24-4.15,4.43-4.15Z"/><path d="M622.23,434c3.49,0,5.43,2,5.43,6s-1.92,6-5.43,6H620.6c-3.51,0-5.43-2-5.43-6s1.94-6,5.43-6Zm-1.63,2.1c-2.31,0-3.33,1.17-3.33,3.93s1,3.88,3.33,3.88h1.63c2.32,0,3.31-1.14,3.31-3.9s-1-3.91-3.31-3.91Z"/><path d="M639.09,434c2.7,0,3.86,1.67,3.86,3.59a3.55,3.55,0,0,1-2.55,3.62l2.8,4.8h-2.33l-2.74-4.64H635a.26.26,0,0,0-.3.3V446h-2.1v-4.75c0-1.35.57-1.91,1.89-1.91h4.68a1.55,1.55,0,0,0,1.67-1.67,1.51,1.51,0,0,0-1.67-1.58h-6.58V434Z"/><path d="M656.15,446H653.9l3.72-10a2.75,2.75,0,0,1,2.83-2.22,2.41,2.41,0,0,1,2.67,2.61v7.1a.61.61,0,0,0,.6.68.72.72,0,0,0,.68-.5l2.91-7.67a2.76,2.76,0,0,1,2.83-2.22,2.41,2.41,0,0,1,2.67,2.61V446h-2.12v-9.5c0-.43-.24-.69-.6-.69a.72.72,0,0,0-.66.51L666.51,444a2.77,2.77,0,0,1-2.84,2.22,2.41,2.41,0,0,1-2.65-2.63v-7.08a.62.62,0,0,0-.62-.69.7.7,0,0,0-.66.51Z"/><path d="M684.8,434c3.49,0,5.43,2,5.43,6s-1.92,6-5.43,6h-1.63c-3.51,0-5.43-2-5.43-6s1.94-6,5.43-6Zm-1.63,2.1c-2.31,0-3.33,1.17-3.33,3.93s1,3.88,3.33,3.88h1.63c2.32,0,3.31-1.14,3.31-3.9s-1-3.91-3.31-3.91Z"/><path d="M700.41,434c3.5,0,5.41,2,5.41,6s-1.89,6-5.41,6h-4.24a.86.86,0,0,1-1-1V435a.86.86,0,0,1,1-1Zm-3.13,9.7c0,.15.07.21.23.21h2.9c2.33,0,3.31-1.16,3.31-3.92s-1-3.89-3.31-3.89h-2.9c-.16,0-.23.05-.23.21Z"/><path d="M720.35,434v2.1h-6c-1.26,0-1.81.59-1.81,1.51s.62,1.43,1.83,1.43h5.91v1.9h-6c-1.21,0-1.84.48-1.84,1.46s.59,1.51,1.82,1.51h6.08V446h-6.08c-2.85,0-4-1.41-4-3.28A2.75,2.75,0,0,1,712,440a2.68,2.68,0,0,1-1.69-2.71c0-1.92,1.19-3.27,4-3.27Z"/><path d="M732.05,434c2.7,0,3.86,1.67,3.86,3.59a3.54,3.54,0,0,1-2.55,3.62l2.8,4.8h-2.33l-2.74-4.64H728c-.2,0-.31.08-.31.3V446h-2.09v-4.75c0-1.35.56-1.91,1.88-1.91h4.68a1.55,1.55,0,0,0,1.67-1.67,1.51,1.51,0,0,0-1.67-1.58h-6.58V434Z"/><path d="M742.83,446h-2.09v-9.61a2.44,2.44,0,0,1,2.75-2.61,2.83,2.83,0,0,1,2.92,2.22l3.5,7.67a.84.84,0,0,0,.77.5.65.65,0,0,0,.71-.68V434h2.12v9.59a2.45,2.45,0,0,1-2.76,2.63,2.83,2.83,0,0,1-2.93-2.22l-3.51-7.67a.74.74,0,0,0-.74-.51.65.65,0,0,0-.74.69Z"/><path d="M772.38,434c2.83,0,4,1.34,4,3.29a2.59,2.59,0,0,1-1.73,2.67,2.7,2.7,0,0,1,1.78,2.74c0,1.92-1.19,3.31-4,3.31h-5.34a.86.86,0,0,1-1-1V435a.86.86,0,0,1,1-1ZM768.16,439h4.27c1.25,0,1.85-.46,1.85-1.44s-.55-1.56-1.83-1.56h-4.06c-.14,0-.23.07-.23.21Zm0,4.66c0,.14.09.2.23.2h4.1c1.26,0,1.84-.59,1.84-1.57s-.62-1.55-1.84-1.55h-4.33Z"/><path d="M783.41,434v8c0,1.19.61,1.89,2,1.89h2.13a1.73,1.73,0,0,0,2-1.89v-8h2.06v8.18c0,2.53-1.34,3.83-3.9,3.83h-2.52c-2.56,0-3.88-1.3-3.88-3.83V434Z"/><path d="M806.13,434v2.1H800c-1.08,0-1.56.59-1.56,1.42s.37,1.43,1.77,1.43H803c3.27,0,4,1.81,4,3.54,0,2-1.08,3.52-3.82,3.52h-6.69v-2.1h6.76c1.14,0,1.65-.62,1.65-1.49s-.4-1.5-1.88-1.5h-2.79c-3.2,0-3.95-1.8-3.95-3.47,0-2,1.06-3.45,3.73-3.45Z"/><path d="M814,434v12h-2.1V434Z"/><path d="M821.41,446h-2.09v-9.61a2.44,2.44,0,0,1,2.75-2.61A2.82,2.82,0,0,1,825,436l3.5,7.67a.84.84,0,0,0,.77.5.65.65,0,0,0,.71-.68V434h2.12v9.59a2.45,2.45,0,0,1-2.76,2.63A2.83,2.83,0,0,1,826.4,444l-3.51-7.67a.74.74,0,0,0-.74-.51.65.65,0,0,0-.74.69Z"/><path d="M847,434v2.1h-6c-1.26,0-1.81.59-1.81,1.51S839.83,439,841,439H847v1.9h-6c-1.21,0-1.83.48-1.83,1.46s.58,1.51,1.81,1.51h6.08V446H841c-2.84,0-4-1.41-4-3.28a2.75,2.75,0,0,1,1.72-2.75,2.67,2.67,0,0,1-1.68-2.71c0-1.92,1.19-3.27,4-3.27Z"/><path d="M861.52,434v2.1h-6.15c-1.09,0-1.57.59-1.57,1.42s.38,1.43,1.78,1.43h2.81c3.27,0,4,1.81,4,3.54,0,2-1.09,3.52-3.83,3.52h-6.68v-2.1h6.76c1.13,0,1.65-.62,1.65-1.49s-.41-1.5-1.89-1.5h-2.79c-3.2,0-3.95-1.8-3.95-3.47,0-2,1.07-3.45,3.74-3.45Z"/><path d="M876.5,434v2.1h-6.15c-1.08,0-1.57.59-1.57,1.42s.38,1.43,1.78,1.43h2.82c3.27,0,4,1.81,4,3.54,0,2-1.08,3.52-3.82,3.52H866.9v-2.1h6.76c1.14,0,1.65-.62,1.65-1.49s-.41-1.5-1.88-1.5h-2.79c-3.21,0-3.95-1.8-3.95-3.47,0-2,1.06-3.45,3.73-3.45Z"/><path d="M891.81,434v2.1h-6c-1.26,0-1.82.59-1.82,1.51s.63,1.43,1.84,1.43h5.9v1.9h-6c-1.21,0-1.83.48-1.83,1.46s.59,1.51,1.81,1.51h6.09V446h-6.09c-2.84,0-4-1.41-4-3.28a2.76,2.76,0,0,1,1.73-2.75,2.68,2.68,0,0,1-1.69-2.71c0-1.92,1.19-3.27,4-3.27Z"/><path d="M906.3,434v2.1h-6.16c-1.08,0-1.56.59-1.56,1.42s.37,1.43,1.77,1.43h2.82c3.27,0,4,1.81,4,3.54,0,2-1.08,3.52-3.82,3.52h-6.69v-2.1h6.76c1.14,0,1.65-.62,1.65-1.49s-.4-1.5-1.88-1.5h-2.79c-3.2,0-3.95-1.8-3.95-3.47,0-2,1.07-3.45,3.73-3.45Z"/></svg>