<svg id="Layer_1" viewBox="0 0 1280 769">
    <defs>
        <style>
            .cls-1 {
                fill: #000120;
            }

            .cls-2 {
                fill: url(#linear-gradient);
            }

            .cls-3 {
                fill: url(#linear-gradient-2);
            }

            .cls-4 {
                fill: url(#linear-gradient-3);
            }

            .cls-5 {
                fill: url(#linear-gradient-4);
            }

            .cls-6 {
                fill: #fff;
            }
        </style>
    </defs>
    <path class="cls-6"
        d="M457.18,406.29h-6.54l11.92-30.19c1.26-3.17,3.57-4.37,7.14-4.37s5.84,1.2,7.05,4.37l11.46,30.19h-6.59L471.31,379a1.62,1.62,0,0,0-1.66-1.16,1.73,1.73,0,0,0-1.71,1.16Z" />
    <path class="cls-6"
        d="M509,372.33c9.91,0,15.29,5.53,15.29,17s-5.33,17-15.29,17h-12c-1.91,0-2.82-.91-2.82-2.77V375.1c0-1.86.91-2.77,2.82-2.77Zm-8.85,27.42c0,.45.2.6.65.6H509c6.59,0,9.36-3.27,9.36-11.07s-2.77-11-9.36-11h-8.2c-.45,0-.65.15-.65.6Z" />
    <path class="cls-6" d="M538.27,372.33v13.83h17.36V372.33h6v34h-6V392.1H538.27v14.19h-5.94v-34Z" />
    <path class="cls-6"
        d="M574.19,406.29h-6.54l11.92-30.19c1.26-3.17,3.57-4.37,7.14-4.37s5.84,1.2,7,4.37l11.47,30.19h-6.59L588.32,379a1.62,1.62,0,0,0-1.66-1.16A1.73,1.73,0,0,0,585,379Z" />
    <path class="cls-6"
        d="M629.58,372.33c7.64,0,10.91,4.73,10.91,10.16,0,4.23-2,8.76-7.19,10.21l7.9,13.59h-6.6l-7.74-13.13H618a.75.75,0,0,0-.86.85v12.28h-5.94V392.85c0-3.82,1.61-5.38,5.34-5.38h13.23a4.39,4.39,0,0,0,4.72-4.73c0-2.41-1.45-4.47-4.72-4.47H611.16v-5.94Z" />
    <path class="cls-6"
        d="M689.84,372.33v5.94H676.71c-6.54,0-9.41,3.27-9.41,11.06s2.82,11,9.41,11h13.13v5.94H676.71c-9.91,0-15.34-5.59-15.34-17s5.48-17,15.34-17Z" />
    <path class="cls-6"
        d="M716.15,372.33c9.86,0,15.34,5.64,15.34,17.05s-5.43,16.91-15.34,16.91h-4.63c-9.91,0-15.34-5.54-15.34-16.91s5.48-17.05,15.34-17.05Zm-4.63,5.94c-6.54,0-9.4,3.32-9.4,11.11s2.81,11,9.4,11h4.63c6.54,0,9.36-3.22,9.36-11s-2.82-11.06-9.36-11.06Z" />
    <path class="cls-6"
        d="M745.38,406.29h-5.94V379.12c0-4.42,2.52-7.39,7.8-7.39,4.73,0,6.84,2.41,8.25,6.29l9.91,21.68a2.3,2.3,0,0,0,2.16,1.41,1.83,1.83,0,0,0,2-1.92V372.33h6v27.12c0,4.47-2.56,7.44-7.79,7.44-4.73,0-6.9-2.41-8.3-6.29l-9.92-21.68a2.1,2.1,0,0,0-2.11-1.46,1.83,1.83,0,0,0-2.06,2Z" />
    <path class="cls-6"
        d="M810.93,372.33v5.94H793.52c-3.07,0-4.42,1.66-4.42,4,0,2.06,1,4,5,4h7.94c9.26,0,11.42,5.13,11.42,10,0,5.73-3.06,10-10.81,10H783.76v-5.94h19.12c3.22,0,4.68-1.76,4.68-4.23,0-2.21-1.16-4.22-5.33-4.22h-7.9c-9.06,0-11.17-5.08-11.17-9.81,0-5.63,3-9.76,10.56-9.76Z" />
    <path class="cls-6"
        d="M839.6,372.33c9.86,0,15.35,5.64,15.35,17.05s-5.44,16.91-15.35,16.91H835c-9.91,0-15.34-5.54-15.34-16.91s5.48-17.05,15.34-17.05ZM835,378.27c-6.54,0-9.4,3.32-9.4,11.11s2.81,11,9.4,11h4.63c6.54,0,9.36-3.22,9.36-11s-2.82-11.06-9.36-11.06Z" />
    <path class="cls-6"
        d="M868.53,372.33v22.18c0,3.28,1.61,5.84,6.94,5.84h13.18v5.94H875.12c-9,0-12.53-4.93-12.53-11.72V372.33Z" />
    <path class="cls-6"
        d="M922.35,372.33v5.94h-17c-3.57,0-5.13,1.66-5.13,4.27,0,2.77,1.76,4,5.18,4h16.7V392H905.25c-3.42,0-5.18,1.36-5.18,4.12s1.66,4.28,5.13,4.28h17.2v5.94H905.2c-8.05,0-11.32-4-11.32-9.26,0-3.87,1.76-6.49,4.88-7.8-3.17-1.3-4.78-3.92-4.78-7.64,0-5.44,3.37-9.26,11.37-9.26Z" />
</svg>